<svg width="64" height="64" viewBox="0 0 64 64" fill="none" xmlns="http://www.w3.org/2000/svg">
<rect width="64" height="64" rx="2" fill="#E1F8EE"/>
<path d="M42.75 30H34C33.2044 30 32.4413 29.6839 31.8787 29.1213C31.3161 28.5587 31 27.7956 31 27V18.25C31 18.1837 30.9737 18.1201 30.9268 18.0732C30.8799 18.0263 30.8163 18 30.75 18H25C23.9391 18 22.9217 18.4214 22.1716 19.1716C21.4214 19.9217 21 20.9391 21 22V42C21 43.0609 21.4214 44.0783 22.1716 44.8284C22.9217 45.5786 23.9391 46 25 46H39C40.0609 46 41.0783 45.5786 41.8284 44.8284C42.5786 44.0783 43 43.0609 43 42V30.25C43 30.1837 42.9737 30.1201 42.9268 30.0732C42.8799 30.0263 42.8163 30 42.75 30Z" fill="#2FBB80"/>
<path d="M42.2013 27.7869L33.2131 18.7987C33.1956 18.7814 33.1734 18.7696 33.1492 18.7648C33.1251 18.76 33.1 18.7625 33.0772 18.7719C33.0545 18.7813 33.035 18.7972 33.0212 18.8177C33.0075 18.8382 33.0001 18.8622 33 18.8869V27C33 27.2652 33.1054 27.5196 33.2929 27.7071C33.4804 27.8946 33.7348 28 34 28H42.1131C42.1378 27.9999 42.1618 27.9925 42.1823 27.9788C42.2028 27.965 42.2187 27.9455 42.2281 27.9228C42.2375 27.9 42.24 27.8749 42.2352 27.8508C42.2304 27.8266 42.2186 27.8044 42.2013 27.7869Z" fill="#2FBB80"/>
</svg>
