<svg width="36" height="36" viewBox="0 0 36 36" fill="none" xmlns="http://www.w3.org/2000/svg">
<circle cx="18" cy="18" r="18" fill="#ECF9EF"/>
<path d="M25.8423 12.915C25.8343 12.7894 25.7845 12.67 25.7007 12.576C25.6168 12.4821 25.5039 12.419 25.38 12.3968C22.339 11.8512 21.0695 11.4567 18.2317 10.1749C18.1589 10.142 18.0799 10.125 18 10.125C17.9201 10.125 17.8411 10.142 17.7683 10.1749C14.9305 11.4567 13.661 11.8512 10.62 12.3968C10.496 12.419 10.3831 12.4821 10.2993 12.576C10.2155 12.67 10.1656 12.7894 10.1577 12.915C10.0223 15.0634 10.311 17.0652 11.0165 18.8648C11.5943 20.3328 12.4495 21.6757 13.5351 22.8203C15.4149 24.8147 17.4108 25.6809 17.7915 25.8342C17.9268 25.889 18.0781 25.889 18.2134 25.8342C18.5941 25.6809 20.5899 24.8147 22.4698 22.8203C23.5537 21.6753 24.4071 20.3324 24.9834 18.8648C25.689 17.0652 25.9776 15.0634 25.8423 12.915ZM21.2368 15.5556L17.3415 20.0556C17.2914 20.1136 17.23 20.1608 17.161 20.1942C17.092 20.2277 17.017 20.2466 16.9404 20.25H16.9172C16.77 20.25 16.6286 20.1924 16.5234 20.0893L14.7937 18.3948C14.741 18.3431 14.6989 18.2815 14.6699 18.2135C14.641 18.1456 14.6257 18.0726 14.6249 17.9987C14.6234 17.8495 14.6812 17.7058 14.7856 17.5992C14.8901 17.4927 15.0326 17.4319 15.1818 17.4304C15.331 17.4289 15.4747 17.4867 15.5812 17.5911L16.882 18.867L20.3871 14.8194C20.4847 14.7066 20.6232 14.6372 20.772 14.6264C20.9208 14.6157 21.0677 14.6645 21.1806 14.7621C21.2934 14.8597 21.3628 14.9982 21.3736 15.147C21.3843 15.2958 21.3355 15.4428 21.2379 15.5556H21.2368Z" fill="#82E3BA"/>
</svg>
